<svg xmlns="http://www.w3.org/2000/svg" xmlns:xlink="http://www.w3.org/1999/xlink" width="300" zoomAndPan="magnify" viewBox="0 0 224.87999 31.5" height="42" preserveAspectRatio="xMidYMid meet" version="1.0"><defs><filter x="0%" y="0%" width="100%" height="100%" id="7ae9049b00"><feColorMatrix values="0 0 0 0 1 0 0 0 0 1 0 0 0 0 1 0 0 0 1 0" color-interpolation-filters="sRGB"/></filter><mask id="46ade79d30"><g filter="url(#7ae9049b00)"><rect x="-22.487999" width="269.855988" fill="#000000" y="-3.15" height="37.8" fill-opacity="0.0471"/></g></mask><clipPath id="e14795ad88"><path d="M 0.75 0.945312 L 126.257812 0.945312 L 126.257812 30.269531 L 0.75 30.269531 Z M 0.75 0.945312 " clip-rule="nonzero"/></clipPath><clipPath id="a419194cab"><rect x="0" width="127" y="0" height="31"/></clipPath><clipPath id="ae3fba1755"><path d="M 135 0 L 218 0 L 218 31.007812 L 135 31.007812 Z M 135 0 " clip-rule="nonzero"/></clipPath><mask id="eccd340f65"><g filter="url(#7ae9049b00)"><rect x="-22.487999" width="269.855988" fill="#000000" y="-3.15" height="37.8" fill-opacity="0.0471"/></g></mask><clipPath id="c5ec7a7f86"><path d="M 0.886719 0.738281 L 81.683594 0.738281 L 81.683594 30.269531 L 0.886719 30.269531 Z M 0.886719 0.738281 " clip-rule="nonzero"/></clipPath><clipPath id="e00e996d49"><rect x="0" width="83" y="0" height="32"/></clipPath></defs><g mask="url(#46ade79d30)"><g transform="matrix(1, 0, 0, 1, 7, -0.000000000000002887)"><g clip-path="url(#a419194cab)"><g clip-path="url(#e14795ad88)"><path fill="#000000" d="M 126.257812 27.65625 L 123.867188 29.976562 L 113.480469 19.257812 L 113.480469 29.589844 L 110.007812 29.589844 L 110.007812 0.953125 L 113.480469 0.953125 L 113.480469 17.324219 L 122.554688 9.078125 L 124.5625 11.285156 L 116.800781 18.175781 Z M 18.394531 22.546875 L 18.394531 9.464844 L 21.871094 9.464844 L 21.871094 22.082031 C 21.867188 22.542969 21.898438 22.996094 21.96875 23.449219 C 22.042969 23.925781 22.15625 24.359375 22.316406 24.742188 C 22.457031 25.089844 22.640625 25.410156 22.871094 25.703125 C 23.382812 26.339844 24.042969 26.730469 24.847656 26.871094 C 25.164062 26.933594 25.484375 26.960938 25.808594 26.960938 C 26.863281 26.960938 27.886719 26.746094 28.875 26.320312 C 29.867188 25.894531 30.75 25.320312 31.519531 24.597656 L 31.519531 9.464844 L 34.996094 9.464844 L 34.996094 24.367188 C 34.996094 25.476562 35.234375 26.203125 35.710938 26.554688 C 36.183594 26.902344 36.707031 27.074219 37.273438 27.074219 L 36.539062 29.785156 C 34.144531 29.785156 32.664062 28.832031 32.101562 26.921875 C 31.199219 27.851562 30.15625 28.605469 28.972656 29.183594 C 27.789062 29.765625 26.515625 30.054688 25.152344 30.054688 C 23.992188 30.054688 22.898438 29.8125 21.871094 29.320312 C 21.007812 28.90625 20.296875 28.304688 19.742188 27.523438 C 19.605469 27.335938 19.476562 27.140625 19.359375 26.941406 C 19.074219 26.441406 18.859375 25.914062 18.71875 25.355469 C 18.503906 24.542969 18.394531 23.605469 18.394531 22.546875 Z M 65.222656 27.964844 L 66.691406 25.0625 C 67.359375 25.628906 68.203125 26.101562 69.21875 26.476562 C 70.167969 26.820312 71.148438 27.007812 72.15625 27.03125 C 72.265625 27.035156 72.375 27.035156 72.480469 27.035156 C 72.878906 27.039062 73.277344 27.015625 73.671875 26.972656 C 74.492188 26.878906 75.15625 26.679688 75.660156 26.371094 C 75.6875 26.355469 75.714844 26.339844 75.742188 26.320312 C 75.964844 26.179688 76.160156 26.015625 76.335938 25.820312 C 76.679688 25.441406 76.847656 24.996094 76.84375 24.484375 C 76.847656 24.199219 76.804688 23.921875 76.722656 23.652344 C 76.65625 23.4375 76.5625 23.238281 76.4375 23.050781 C 76.167969 22.636719 75.671875 22.230469 74.953125 21.832031 C 74.300781 21.46875 73.386719 21.082031 72.210938 20.667969 C 72.082031 20.625 71.953125 20.578125 71.824219 20.535156 C 71.246094 20.339844 70.683594 20.113281 70.128906 19.859375 C 69.074219 19.371094 68.230469 18.832031 67.597656 18.230469 C 66.929688 17.59375 66.503906 16.820312 66.328125 15.910156 C 66.230469 15.457031 66.1875 15 66.1875 14.535156 C 66.183594 13.871094 66.316406 13.238281 66.582031 12.628906 C 66.847656 12.023438 67.222656 11.496094 67.710938 11.046875 C 67.871094 10.890625 68.039062 10.746094 68.214844 10.609375 C 68.917969 10.0625 69.691406 9.671875 70.546875 9.429688 C 71.203125 9.234375 71.925781 9.105469 72.714844 9.042969 C 73.085938 9.015625 73.460938 9 73.832031 9.003906 C 74.40625 9 74.980469 9.03125 75.550781 9.089844 C 76.160156 9.160156 76.734375 9.265625 77.269531 9.410156 C 77.808594 9.554688 78.34375 9.726562 78.863281 9.933594 C 79.242188 10.082031 79.609375 10.25 79.972656 10.433594 L 79.007812 13.296875 C 78.554688 13.03125 78.082031 12.800781 77.589844 12.613281 C 77.277344 12.492188 76.957031 12.386719 76.632812 12.292969 C 76.066406 12.128906 75.488281 12.019531 74.902344 11.964844 C 74.496094 11.925781 74.085938 11.902344 73.679688 11.90625 C 73.296875 11.902344 72.921875 11.925781 72.542969 11.980469 C 71.75 12.09375 71.113281 12.339844 70.628906 12.71875 C 70.167969 13.078125 69.859375 13.460938 69.703125 13.867188 C 69.625 14.070312 69.585938 14.28125 69.585938 14.496094 C 69.585938 15.039062 69.777344 15.496094 70.164062 15.871094 C 70.238281 15.945312 70.316406 16.019531 70.398438 16.085938 C 70.929688 16.515625 71.957031 16.984375 73.484375 17.492188 C 73.511719 17.5 73.535156 17.507812 73.5625 17.515625 C 75.765625 18.253906 77.390625 19.054688 78.441406 19.925781 C 78.597656 20.058594 78.746094 20.195312 78.890625 20.339844 C 79.863281 21.335938 80.363281 22.527344 80.390625 23.921875 C 80.394531 24.015625 80.394531 24.113281 80.394531 24.210938 C 80.40625 24.953125 80.269531 25.664062 79.984375 26.347656 C 79.652344 27.128906 79.113281 27.804688 78.367188 28.375 C 78.316406 28.414062 78.265625 28.449219 78.214844 28.488281 C 76.996094 29.363281 75.425781 29.875 73.507812 30.015625 C 73.128906 30.042969 72.746094 30.054688 72.367188 30.054688 C 71.609375 30.058594 70.855469 30.003906 70.101562 29.898438 C 69.476562 29.804688 68.859375 29.664062 68.253906 29.476562 C 67.746094 29.316406 67.253906 29.125 66.773438 28.902344 C 66.261719 28.660156 65.804688 28.390625 65.394531 28.097656 C 65.335938 28.054688 65.28125 28.011719 65.222656 27.964844 Z M 4.226562 22.664062 L 4.226562 13.21875 L 0.75 13.21875 L 0.75 10.203125 L 4.304688 10.203125 L 5.035156 3.855469 L 7.699219 3.855469 L 7.699219 10.203125 L 13.261719 10.203125 L 13.261719 13.21875 L 7.699219 13.21875 L 7.699219 22.933594 C 7.699219 23.296875 7.71875 23.65625 7.765625 24.015625 C 7.886719 24.949219 8.179688 25.632812 8.648438 26.070312 C 9.277344 26.664062 10.03125 26.960938 10.90625 26.960938 C 11.546875 26.960938 12.160156 26.855469 12.738281 26.648438 C 13.160156 26.5 13.566406 26.324219 13.964844 26.121094 C 14.09375 26.054688 14.21875 25.984375 14.339844 25.914062 L 15.304688 28.703125 C 15.105469 28.820312 14.894531 28.933594 14.683594 29.03125 C 14.269531 29.226562 13.78125 29.421875 13.222656 29.609375 C 12.347656 29.90625 11.433594 30.054688 10.480469 30.054688 C 9.800781 30.0625 9.132812 29.972656 8.480469 29.785156 C 7.460938 29.492188 6.601562 28.941406 5.90625 28.140625 C 5.328125 27.46875 4.914062 26.707031 4.660156 25.855469 C 4.464844 25.226562 4.332031 24.535156 4.269531 23.777344 C 4.242188 23.40625 4.226562 23.035156 4.226562 22.664062 Z M 85.800781 22.664062 L 85.800781 13.21875 L 82.324219 13.21875 L 82.324219 10.203125 L 85.878906 10.203125 L 86.609375 3.855469 L 89.273438 3.855469 L 89.273438 10.203125 L 94.835938 10.203125 L 94.835938 13.21875 L 89.273438 13.21875 L 89.273438 22.933594 C 89.273438 23.296875 89.292969 23.65625 89.339844 24.015625 C 89.460938 24.949219 89.753906 25.632812 90.222656 26.070312 C 90.851562 26.664062 91.605469 26.960938 92.480469 26.960938 C 93.121094 26.960938 93.734375 26.855469 94.3125 26.648438 C 94.734375 26.5 95.144531 26.324219 95.539062 26.121094 C 95.667969 26.054688 95.792969 25.984375 95.914062 25.914062 L 96.878906 28.703125 C 96.679688 28.820312 96.46875 28.933594 96.257812 29.03125 C 95.84375 29.226562 95.355469 29.421875 94.796875 29.609375 C 93.921875 29.90625 93.007812 30.054688 92.054688 30.054688 C 91.375 30.0625 90.707031 29.972656 90.054688 29.785156 C 89.035156 29.492188 88.175781 28.941406 87.480469 28.140625 C 86.902344 27.46875 86.488281 26.707031 86.234375 25.855469 C 86.039062 25.226562 85.90625 24.535156 85.84375 23.777344 C 85.816406 23.40625 85.800781 23.035156 85.800781 22.664062 Z M 45.378906 29.589844 L 41.90625 29.589844 L 41.90625 9.464844 L 45.265625 9.464844 L 45.265625 13.839844 C 45.597656 12.988281 46.050781 12.195312 46.617188 11.460938 C 47.183594 10.722656 47.890625 10.128906 48.738281 9.679688 C 49.308594 9.382812 49.910156 9.183594 50.546875 9.089844 C 50.933594 9.03125 51.320312 9 51.710938 9.003906 C 52.097656 9.003906 52.484375 9.019531 52.871094 9.058594 C 53.003906 9.074219 53.140625 9.089844 53.277344 9.113281 C 53.488281 9.144531 53.675781 9.1875 53.835938 9.234375 L 52.792969 12.832031 C 52.324219 12.636719 51.777344 12.535156 51.144531 12.523438 C 51.117188 12.523438 51.085938 12.523438 51.054688 12.523438 C 50.136719 12.527344 49.285156 12.765625 48.496094 13.238281 C 48.441406 13.269531 48.386719 13.304688 48.332031 13.335938 C 47.476562 13.875 46.773438 14.707031 46.222656 15.832031 C 46.21875 15.835938 46.214844 15.84375 46.210938 15.851562 C 45.757812 16.78125 45.488281 17.921875 45.40625 19.269531 C 45.390625 19.574219 45.378906 19.878906 45.378906 20.1875 Z M 60.785156 29.589844 L 57.308594 29.589844 L 57.308594 9.464844 L 60.785156 9.464844 Z M 103.828125 29.589844 L 100.355469 29.589844 L 100.355469 9.464844 L 103.828125 9.464844 Z M 57.363281 5.320312 C 57.824219 5.796875 58.382812 6.03125 59.046875 6.023438 C 59.242188 6.023438 59.433594 6.007812 59.625 5.972656 C 60.089844 5.894531 60.492188 5.683594 60.824219 5.34375 C 61.085938 5.074219 61.269531 4.753906 61.371094 4.390625 C 61.445312 4.125 61.480469 3.859375 61.480469 3.582031 C 61.480469 3.574219 61.480469 3.5625 61.480469 3.554688 C 61.480469 2.886719 61.242188 2.324219 60.765625 1.863281 C 60.289062 1.382812 59.714844 1.144531 59.046875 1.144531 C 58.300781 1.144531 57.707031 1.363281 57.269531 1.804688 C 56.832031 2.242188 56.613281 2.835938 56.613281 3.582031 C 56.613281 3.910156 56.675781 4.222656 56.804688 4.519531 C 56.933594 4.808594 57.105469 5.0625 57.328125 5.285156 C 57.339844 5.296875 57.351562 5.308594 57.363281 5.320312 Z M 100.40625 5.320312 C 100.867188 5.796875 101.429688 6.03125 102.09375 6.023438 C 102.285156 6.023438 102.480469 6.007812 102.671875 5.972656 C 103.136719 5.894531 103.535156 5.683594 103.867188 5.34375 C 104.132812 5.074219 104.316406 4.753906 104.417969 4.390625 C 104.492188 4.125 104.527344 3.859375 104.523438 3.582031 C 104.523438 3.574219 104.523438 3.5625 104.523438 3.554688 C 104.527344 2.886719 104.289062 2.324219 103.808594 1.863281 C 103.335938 1.382812 102.761719 1.144531 102.09375 1.144531 C 101.347656 1.144531 100.753906 1.363281 100.316406 1.804688 C 99.878906 2.242188 99.660156 2.835938 99.660156 3.582031 C 99.65625 3.910156 99.722656 4.222656 99.851562 4.519531 C 99.976562 4.808594 100.152344 5.0625 100.375 5.285156 C 100.386719 5.296875 100.394531 5.308594 100.40625 5.320312 Z M 100.40625 5.320312 " fill-opacity="1" fill-rule="evenodd"/></g></g></g></g><g clip-path="url(#ae3fba1755)"><g mask="url(#eccd340f65)"><g transform="matrix(1, 0, 0, 1, 135, -0.000000000000002887)"><g clip-path="url(#e00e996d49)"><g clip-path="url(#c5ec7a7f86)"><path fill="#000000" d="M 43.980469 21.9375 L 43.980469 11.292969 L 40.054688 11.292969 L 40.054688 7.890625 L 44.066406 7.890625 L 44.898438 0.738281 L 47.90625 0.738281 L 47.90625 7.890625 L 54.1875 7.890625 L 54.1875 11.292969 L 47.90625 11.292969 L 47.90625 22.242188 C 47.902344 22.652344 47.929688 23.058594 47.980469 23.464844 C 48.117188 24.511719 48.449219 25.28125 48.976562 25.777344 C 49.6875 26.445312 50.539062 26.78125 51.527344 26.78125 C 52.253906 26.78125 52.945312 26.664062 53.597656 26.429688 C 54.074219 26.261719 54.535156 26.0625 54.984375 25.832031 C 55.128906 25.757812 55.269531 25.683594 55.410156 25.601562 L 56.5 28.742188 C 56.269531 28.878906 56.035156 29.003906 55.792969 29.117188 C 55.328125 29.335938 54.777344 29.554688 54.144531 29.769531 C 53.15625 30.101562 52.125 30.269531 51.046875 30.269531 C 50.277344 30.277344 49.523438 30.175781 48.785156 29.964844 C 47.632812 29.632812 46.664062 29.015625 45.878906 28.109375 C 45.226562 27.351562 44.757812 26.492188 44.46875 25.535156 C 44.25 24.828125 44.101562 24.046875 44.03125 23.195312 C 43.996094 22.777344 43.980469 22.359375 43.980469 21.9375 Z M 75.082031 8.894531 L 75.082031 7.0625 L 78.660156 7.0625 L 78.660156 24.25 C 78.65625 24.488281 78.671875 24.726562 78.703125 24.964844 C 78.777344 25.511719 78.945312 25.921875 79.210938 26.199219 C 79.285156 26.28125 79.371094 26.351562 79.464844 26.410156 C 80.003906 26.742188 80.59375 26.910156 81.234375 26.910156 L 80.402344 29.964844 C 77.679688 29.964844 76.007812 28.886719 75.390625 26.726562 C 75.375 26.671875 75.359375 26.617188 75.34375 26.5625 C 74.945312 27.109375 74.492188 27.609375 73.988281 28.054688 C 73.554688 28.441406 73.097656 28.792969 72.617188 29.113281 C 71.953125 29.550781 71.234375 29.855469 70.457031 30.03125 C 69.871094 30.167969 69.234375 30.246094 68.550781 30.265625 C 68.445312 30.269531 68.339844 30.269531 68.234375 30.269531 C 66.34375 30.269531 64.628906 29.789062 63.085938 28.828125 C 61.75 27.992188 60.671875 26.894531 59.851562 25.546875 C 59.691406 25.289062 59.542969 25.023438 59.402344 24.75 C 58.839844 23.65625 58.457031 22.5 58.253906 21.285156 C 58.097656 20.375 58.023438 19.460938 58.027344 18.535156 C 58.019531 17.316406 58.164062 16.113281 58.460938 14.929688 C 58.683594 14.058594 58.996094 13.226562 59.402344 12.429688 C 60.316406 10.625 61.582031 9.195312 63.195312 8.132812 C 64.679688 7.164062 66.308594 6.636719 68.078125 6.558594 C 68.304688 6.546875 68.53125 6.539062 68.757812 6.539062 C 69.460938 6.535156 70.160156 6.609375 70.847656 6.753906 C 71.351562 6.863281 71.839844 7.015625 72.3125 7.214844 C 72.96875 7.492188 73.589844 7.824219 74.183594 8.214844 C 74.496094 8.425781 74.796875 8.652344 75.082031 8.894531 Z M 4.851562 29.746094 L 0.925781 29.746094 L 0.925781 7.0625 L 4.722656 7.0625 L 4.722656 11.992188 C 5.101562 11.03125 5.609375 10.136719 6.25 9.308594 C 6.886719 8.480469 7.6875 7.8125 8.648438 7.304688 C 9.289062 6.96875 9.972656 6.746094 10.6875 6.640625 C 11.125 6.570312 11.566406 6.539062 12.007812 6.539062 C 12.441406 6.539062 12.878906 6.5625 13.316406 6.605469 C 13.46875 6.621094 13.621094 6.640625 13.773438 6.664062 C 14.015625 6.703125 14.222656 6.746094 14.40625 6.800781 L 13.226562 10.859375 C 12.699219 10.636719 12.082031 10.519531 11.367188 10.507812 C 11.332031 10.507812 11.300781 10.507812 11.265625 10.507812 C 10.226562 10.511719 9.261719 10.78125 8.371094 11.316406 C 8.3125 11.351562 8.25 11.386719 8.191406 11.425781 C 7.222656 12.03125 6.425781 12.96875 5.804688 14.234375 C 5.800781 14.246094 5.796875 14.253906 5.789062 14.261719 C 5.277344 15.308594 4.976562 16.59375 4.882812 18.109375 C 4.863281 18.457031 4.851562 18.800781 4.851562 19.144531 Z M 22.808594 29.683594 C 24.03125 30.085938 25.289062 30.277344 26.574219 30.269531 C 26.90625 30.269531 27.238281 30.257812 27.566406 30.234375 C 29.277344 30.121094 30.871094 29.640625 32.355469 28.785156 C 34.058594 27.796875 35.402344 26.410156 36.390625 24.621094 C 36.929688 23.640625 37.3125 22.601562 37.546875 21.507812 C 37.769531 20.453125 37.878906 19.390625 37.875 18.316406 C 37.878906 17.453125 37.804688 16.59375 37.660156 15.738281 C 37.445312 14.4375 37.015625 13.210938 36.367188 12.058594 C 35.367188 10.296875 34.011719 8.9375 32.3125 7.980469 C 31.667969 7.617188 30.992188 7.320312 30.289062 7.09375 C 29.078125 6.714844 27.84375 6.53125 26.574219 6.539062 C 26.347656 6.539062 26.117188 6.546875 25.886719 6.558594 C 24.085938 6.632812 22.394531 7.105469 20.816406 7.980469 C 19.101562 8.9375 17.75 10.304688 16.761719 12.078125 C 15.773438 13.855469 15.277344 15.960938 15.277344 18.40625 C 15.277344 20.730469 15.765625 22.789062 16.738281 24.578125 C 17.714844 26.367188 19.058594 27.761719 20.773438 28.765625 C 21.417969 29.140625 22.097656 29.449219 22.808594 29.683594 Z M 26.574219 26.78125 C 27.351562 26.789062 28.109375 26.6875 28.855469 26.480469 C 30.097656 26.128906 31.128906 25.449219 31.941406 24.445312 C 32.785156 23.40625 33.339844 22.230469 33.609375 20.917969 C 33.78125 20.089844 33.867188 19.25 33.859375 18.40625 C 33.867188 17.3125 33.691406 16.253906 33.328125 15.226562 C 33.207031 14.886719 33.0625 14.558594 32.902344 14.238281 C 32.445312 13.316406 31.835938 12.507812 31.082031 11.808594 C 30.835938 11.585938 30.578125 11.378906 30.304688 11.183594 C 29.214844 10.414062 27.972656 10.03125 26.574219 10.03125 C 25.800781 10.023438 25.042969 10.121094 24.296875 10.320312 C 23.0625 10.65625 22.03125 11.316406 21.210938 12.296875 C 20.421875 13.242188 19.886719 14.316406 19.609375 15.515625 C 19.417969 16.285156 19.3125 17.125 19.292969 18.035156 C 19.292969 18.128906 19.292969 18.222656 19.292969 18.316406 C 19.292969 19.828125 19.609375 21.234375 20.25 22.527344 C 20.648438 23.34375 21.160156 24.074219 21.789062 24.726562 C 22.117188 25.058594 22.46875 25.355469 22.847656 25.625 C 23.9375 26.394531 25.179688 26.78125 26.574219 26.78125 Z M 74.734375 23.945312 L 74.734375 11.773438 C 73.949219 11.222656 73.082031 10.777344 72.136719 10.445312 C 71.191406 10.109375 70.195312 9.941406 69.148438 9.941406 C 68.410156 9.9375 67.6875 10.046875 66.980469 10.269531 C 66.441406 10.445312 65.933594 10.695312 65.464844 11.011719 C 64.402344 11.722656 63.566406 12.710938 62.957031 13.976562 C 62.34375 15.242188 62.039062 16.71875 62.039062 18.40625 C 62.039062 20.03125 62.34375 21.480469 62.957031 22.746094 C 63.300781 23.476562 63.753906 24.140625 64.3125 24.726562 C 64.664062 25.101562 65.058594 25.425781 65.484375 25.710938 C 66.5625 26.421875 67.769531 26.78125 69.105469 26.78125 C 70.210938 26.78125 71.257812 26.511719 72.246094 25.972656 C 73.234375 25.433594 74.0625 24.757812 74.734375 23.945312 Z M 74.734375 23.945312 " fill-opacity="1" fill-rule="evenodd"/></g></g></g></g></g></svg>