<svg xmlns="http://www.w3.org/2000/svg" xmlns:xlink="http://www.w3.org/1999/xlink" width="200" zoomAndPan="magnify" viewBox="0 0 150 33.749998" height="45" preserveAspectRatio="xMidYMid meet" version="1.0"><defs><g/></defs><g fill="#ffa500" fill-opacity="1"><g transform="translate(0.627637, 26.201908)"><g><path d="M 10 -0.03125 C 9.132812 0.257812 8.28125 0.4375 7.4375 0.5 C 6.59375 0.5625 5.832031 0.441406 5.15625 0.140625 C 4.476562 -0.160156 3.925781 -0.695312 3.5 -1.46875 C 3.082031 -2.238281 2.875 -3.320312 2.875 -4.71875 L 2.875 -12.390625 L 0.671875 -12.390625 L 0.671875 -14.515625 L 2.875 -15.140625 L 2.875 -19.203125 L 5.953125 -19.203125 L 5.953125 -15.140625 L 10.0625 -15.140625 L 10.0625 -12.390625 L 5.953125 -12.390625 L 5.953125 -4.234375 C 5.953125 -3.734375 6.007812 -3.332031 6.125 -3.03125 C 6.238281 -2.738281 6.429688 -2.519531 6.703125 -2.375 C 6.972656 -2.226562 7.328125 -2.15625 7.765625 -2.15625 C 8.210938 -2.15625 8.753906 -2.195312 9.390625 -2.28125 Z M 10 -0.03125 "/></g></g></g><g fill="#ffa500" fill-opacity="1"><g transform="translate(11.444393, 26.201908)"><g><path d="M 12.015625 -1.359375 C 11.492188 -0.867188 10.878906 -0.46875 10.171875 -0.15625 C 9.460938 0.15625 8.675781 0.3125 7.8125 0.3125 C 7.257812 0.3125 6.632812 0.234375 5.9375 0.078125 C 5.25 -0.078125 4.601562 -0.382812 4 -0.84375 C 3.394531 -1.3125 2.882812 -1.953125 2.46875 -2.765625 C 2.0625 -3.578125 1.859375 -4.640625 1.859375 -5.953125 L 1.859375 -15.140625 L 4.78125 -15.140625 L 4.78125 -5.953125 C 4.78125 -5.296875 4.878906 -4.738281 5.078125 -4.28125 C 5.273438 -3.832031 5.535156 -3.46875 5.859375 -3.1875 C 6.191406 -2.914062 6.566406 -2.71875 6.984375 -2.59375 C 7.410156 -2.46875 7.84375 -2.40625 8.28125 -2.40625 C 8.625 -2.40625 9.007812 -2.46875 9.4375 -2.59375 C 9.875 -2.71875 10.28125 -2.921875 10.65625 -3.203125 C 11.039062 -3.492188 11.363281 -3.859375 11.625 -4.296875 C 11.882812 -4.742188 12.015625 -5.28125 12.015625 -5.90625 L 12.015625 -15.140625 L 15.078125 -15.140625 L 15.078125 0 L 12.65625 0 Z M 12.015625 -1.359375 "/></g></g></g><g fill="#ffa500" fill-opacity="1"><g transform="translate(28.365341, 26.201908)"><g><path d="M 10.90625 -12.328125 C 10.757812 -12.390625 10.613281 -12.457031 10.46875 -12.53125 C 10.34375 -12.570312 10.191406 -12.613281 10.015625 -12.65625 C 9.847656 -12.695312 9.671875 -12.71875 9.484375 -12.71875 C 8.878906 -12.71875 8.3125 -12.613281 7.78125 -12.40625 C 7.25 -12.207031 6.789062 -11.9375 6.40625 -11.59375 C 6.03125 -11.257812 5.734375 -10.863281 5.515625 -10.40625 C 5.296875 -9.957031 5.1875 -9.484375 5.1875 -8.984375 L 5.15625 0 L 2.09375 0 L 2.09375 -15.140625 L 4.515625 -15.140625 L 5.15625 -13.46875 C 5.570312 -14.082031 6.125 -14.570312 6.8125 -14.9375 C 7.5 -15.3125 8.359375 -15.5 9.390625 -15.5 C 10.066406 -15.5 10.835938 -15.40625 11.703125 -15.21875 Z M 10.90625 -12.328125 "/></g></g></g><g fill="#ffa500" fill-opacity="1"><g transform="translate(40.320701, 26.201908)"><g><path d="M 4.96875 0 L 1.890625 0 L 1.890625 -15.140625 L 4.9375 -15.140625 Z M 3.421875 -18.4375 C 2.867188 -18.4375 2.398438 -18.628906 2.015625 -19.015625 C 1.640625 -19.410156 1.453125 -19.882812 1.453125 -20.4375 C 1.453125 -20.976562 1.640625 -21.4375 2.015625 -21.8125 C 2.398438 -22.195312 2.867188 -22.390625 3.421875 -22.390625 C 3.960938 -22.390625 4.421875 -22.195312 4.796875 -21.8125 C 5.179688 -21.4375 5.375 -20.976562 5.375 -20.4375 C 5.375 -19.882812 5.179688 -19.410156 4.796875 -19.015625 C 4.421875 -18.628906 3.960938 -18.4375 3.421875 -18.4375 Z M 3.421875 -18.4375 "/></g></g></g><g fill="#ffa500" fill-opacity="1"><g transform="translate(46.962569, 26.201908)"><g><path d="M 8.828125 -3.15625 C 9.015625 -3.332031 9.179688 -3.523438 9.328125 -3.734375 C 9.472656 -3.941406 9.546875 -4.179688 9.546875 -4.453125 C 9.546875 -4.796875 9.425781 -5.082031 9.1875 -5.3125 C 8.945312 -5.539062 8.648438 -5.734375 8.296875 -5.890625 C 7.953125 -6.054688 7.585938 -6.179688 7.203125 -6.265625 C 6.828125 -6.347656 6.515625 -6.421875 6.265625 -6.484375 C 5.566406 -6.648438 4.910156 -6.851562 4.296875 -7.09375 C 3.691406 -7.34375 3.160156 -7.640625 2.703125 -7.984375 C 2.253906 -8.328125 1.894531 -8.738281 1.625 -9.21875 C 1.363281 -9.695312 1.234375 -10.257812 1.234375 -10.90625 C 1.234375 -11.519531 1.378906 -12.09375 1.671875 -12.625 C 1.972656 -13.164062 2.367188 -13.640625 2.859375 -14.046875 C 3.359375 -14.460938 3.9375 -14.789062 4.59375 -15.03125 C 5.257812 -15.28125 5.960938 -15.40625 6.703125 -15.40625 C 7.359375 -15.40625 7.976562 -15.304688 8.5625 -15.109375 C 9.15625 -14.921875 9.6875 -14.664062 10.15625 -14.34375 C 10.632812 -14.019531 11.035156 -13.625 11.359375 -13.15625 C 11.691406 -12.6875 11.910156 -12.171875 12.015625 -11.609375 L 9.265625 -10.9375 C 9.140625 -11.445312 8.863281 -11.867188 8.4375 -12.203125 C 8.019531 -12.546875 7.441406 -12.71875 6.703125 -12.71875 C 6.453125 -12.71875 6.1875 -12.675781 5.90625 -12.59375 C 5.632812 -12.519531 5.382812 -12.410156 5.15625 -12.265625 C 4.925781 -12.117188 4.726562 -11.941406 4.5625 -11.734375 C 4.40625 -11.523438 4.328125 -11.28125 4.328125 -11 C 4.328125 -10.707031 4.414062 -10.457031 4.59375 -10.25 C 4.78125 -10.039062 5 -9.863281 5.25 -9.71875 C 5.5 -9.582031 5.769531 -9.472656 6.0625 -9.390625 C 6.363281 -9.304688 6.640625 -9.234375 6.890625 -9.171875 C 8.015625 -8.898438 8.941406 -8.601562 9.671875 -8.28125 C 10.410156 -7.96875 11 -7.617188 11.4375 -7.234375 C 11.882812 -6.859375 12.195312 -6.441406 12.375 -5.984375 C 12.5625 -5.535156 12.65625 -5.023438 12.65625 -4.453125 C 12.65625 -3.785156 12.5 -3.15625 12.1875 -2.5625 C 11.882812 -1.96875 11.460938 -1.453125 10.921875 -1.015625 C 10.390625 -0.585938 9.75 -0.253906 9 -0.015625 C 8.25 0.222656 7.441406 0.34375 6.578125 0.34375 C 5.273438 0.34375 4.109375 0.0234375 3.078125 -0.609375 C 2.054688 -1.253906 1.367188 -2.113281 1.015625 -3.1875 L 3.609375 -4.359375 C 3.941406 -3.617188 4.367188 -3.117188 4.890625 -2.859375 C 5.421875 -2.597656 6.023438 -2.46875 6.703125 -2.46875 C 7.546875 -2.46875 8.253906 -2.695312 8.828125 -3.15625 Z M 8.828125 -3.15625 "/></g></g></g><g fill="#ffa500" fill-opacity="1"><g transform="translate(60.562583, 26.201908)"><g><path d="M 10 -0.03125 C 9.132812 0.257812 8.28125 0.4375 7.4375 0.5 C 6.59375 0.5625 5.832031 0.441406 5.15625 0.140625 C 4.476562 -0.160156 3.925781 -0.695312 3.5 -1.46875 C 3.082031 -2.238281 2.875 -3.320312 2.875 -4.71875 L 2.875 -12.390625 L 0.671875 -12.390625 L 0.671875 -14.515625 L 2.875 -15.140625 L 2.875 -19.203125 L 5.953125 -19.203125 L 5.953125 -15.140625 L 10.0625 -15.140625 L 10.0625 -12.390625 L 5.953125 -12.390625 L 5.953125 -4.234375 C 5.953125 -3.734375 6.007812 -3.332031 6.125 -3.03125 C 6.238281 -2.738281 6.429688 -2.519531 6.703125 -2.375 C 6.972656 -2.226562 7.328125 -2.15625 7.765625 -2.15625 C 8.210938 -2.15625 8.753906 -2.195312 9.390625 -2.28125 Z M 10 -0.03125 "/></g></g></g><g fill="#ffa500" fill-opacity="1"><g transform="translate(71.379335, 26.201908)"><g><path d="M 4.96875 0 L 1.890625 0 L 1.890625 -15.140625 L 4.9375 -15.140625 Z M 3.421875 -18.4375 C 2.867188 -18.4375 2.398438 -18.628906 2.015625 -19.015625 C 1.640625 -19.410156 1.453125 -19.882812 1.453125 -20.4375 C 1.453125 -20.976562 1.640625 -21.4375 2.015625 -21.8125 C 2.398438 -22.195312 2.867188 -22.390625 3.421875 -22.390625 C 3.960938 -22.390625 4.421875 -22.195312 4.796875 -21.8125 C 5.179688 -21.4375 5.375 -20.976562 5.375 -20.4375 C 5.375 -19.882812 5.179688 -19.410156 4.796875 -19.015625 C 4.421875 -18.628906 3.960938 -18.4375 3.421875 -18.4375 Z M 3.421875 -18.4375 "/></g></g></g><g fill="#ffa500" fill-opacity="1"><g transform="translate(78.021204, 26.201908)"><g><path d="M 5 0 L 1.921875 0 L 1.921875 -23.09375 L 5 -23.09375 L 5 -8.921875 L 10.9375 -15.140625 L 14.734375 -15.140625 L 8.921875 -9.046875 L 15.1875 0 L 11.703125 0 L 6.921875 -6.953125 L 5 -4.9375 Z M 5 0 "/></g></g></g><g fill="#87ceeb" fill-opacity="1"><g transform="translate(93.193032, 26.13267)"><g><path d="M 10.90625 -12.328125 C 10.757812 -12.390625 10.613281 -12.457031 10.46875 -12.53125 C 10.34375 -12.570312 10.191406 -12.613281 10.015625 -12.65625 C 9.847656 -12.695312 9.671875 -12.71875 9.484375 -12.71875 C 8.878906 -12.71875 8.3125 -12.613281 7.78125 -12.40625 C 7.25 -12.207031 6.789062 -11.9375 6.40625 -11.59375 C 6.03125 -11.257812 5.734375 -10.863281 5.515625 -10.40625 C 5.296875 -9.957031 5.1875 -9.484375 5.1875 -8.984375 L 5.15625 0 L 2.09375 0 L 2.09375 -15.140625 L 4.515625 -15.140625 L 5.15625 -13.46875 C 5.570312 -14.082031 6.125 -14.570312 6.8125 -14.9375 C 7.5 -15.3125 8.359375 -15.5 9.390625 -15.5 C 10.066406 -15.5 10.835938 -15.40625 11.703125 -15.21875 Z M 10.90625 -12.328125 "/></g></g></g><g fill="#87ceeb" fill-opacity="1"><g transform="translate(105.148392, 26.13267)"><g><path d="M 8.40625 0.375 C 7.351562 0.375 6.367188 0.171875 5.453125 -0.234375 C 4.535156 -0.648438 3.734375 -1.210938 3.046875 -1.921875 C 2.367188 -2.640625 1.828125 -3.484375 1.421875 -4.453125 C 1.023438 -5.421875 0.828125 -6.457031 0.828125 -7.5625 C 0.828125 -8.65625 1.023438 -9.6875 1.421875 -10.65625 C 1.828125 -11.625 2.367188 -12.46875 3.046875 -13.1875 C 3.734375 -13.90625 4.535156 -14.46875 5.453125 -14.875 C 6.367188 -15.289062 7.351562 -15.5 8.40625 -15.5 C 9.445312 -15.5 10.429688 -15.289062 11.359375 -14.875 C 12.285156 -14.46875 13.085938 -13.90625 13.765625 -13.1875 C 14.453125 -12.46875 14.992188 -11.625 15.390625 -10.65625 C 15.796875 -9.6875 16 -8.65625 16 -7.5625 C 16 -6.457031 15.796875 -5.421875 15.390625 -4.453125 C 14.992188 -3.484375 14.453125 -2.640625 13.765625 -1.921875 C 13.085938 -1.210938 12.285156 -0.648438 11.359375 -0.234375 C 10.429688 0.171875 9.445312 0.375 8.40625 0.375 Z M 8.40625 -12.75 C 7.800781 -12.75 7.222656 -12.609375 6.671875 -12.328125 C 6.117188 -12.054688 5.640625 -11.6875 5.234375 -11.21875 C 4.828125 -10.757812 4.503906 -10.210938 4.265625 -9.578125 C 4.035156 -8.953125 3.921875 -8.28125 3.921875 -7.5625 C 3.921875 -6.84375 4.035156 -6.164062 4.265625 -5.53125 C 4.503906 -4.894531 4.828125 -4.335938 5.234375 -3.859375 C 5.640625 -3.390625 6.117188 -3.019531 6.671875 -2.75 C 7.222656 -2.476562 7.800781 -2.34375 8.40625 -2.34375 C 9.019531 -2.34375 9.597656 -2.476562 10.140625 -2.75 C 10.691406 -3.019531 11.164062 -3.390625 11.5625 -3.859375 C 11.96875 -4.335938 12.285156 -4.894531 12.515625 -5.53125 C 12.753906 -6.164062 12.875 -6.84375 12.875 -7.5625 C 12.875 -8.28125 12.753906 -8.953125 12.515625 -9.578125 C 12.285156 -10.210938 11.96875 -10.757812 11.5625 -11.21875 C 11.164062 -11.6875 10.691406 -12.054688 10.140625 -12.328125 C 9.597656 -12.609375 9.019531 -12.75 8.40625 -12.75 Z M 8.40625 -12.75 "/></g></g></g><g fill="#87ceeb" fill-opacity="1"><g transform="translate(121.847944, 26.13267)"><g><path d="M 10 -0.03125 C 9.132812 0.257812 8.28125 0.4375 7.4375 0.5 C 6.59375 0.5625 5.832031 0.441406 5.15625 0.140625 C 4.476562 -0.160156 3.925781 -0.695312 3.5 -1.46875 C 3.082031 -2.238281 2.875 -3.320312 2.875 -4.71875 L 2.875 -12.390625 L 0.671875 -12.390625 L 0.671875 -14.515625 L 2.875 -15.140625 L 2.875 -19.203125 L 5.953125 -19.203125 L 5.953125 -15.140625 L 10.0625 -15.140625 L 10.0625 -12.390625 L 5.953125 -12.390625 L 5.953125 -4.234375 C 5.953125 -3.734375 6.007812 -3.332031 6.125 -3.03125 C 6.238281 -2.738281 6.429688 -2.519531 6.703125 -2.375 C 6.972656 -2.226562 7.328125 -2.15625 7.765625 -2.15625 C 8.210938 -2.15625 8.753906 -2.195312 9.390625 -2.28125 Z M 10 -0.03125 "/></g></g></g><g fill="#87ceeb" fill-opacity="1"><g transform="translate(132.6647, 26.13267)"><g><path d="M 16.125 -15.140625 L 16.125 0 L 13.53125 0 L 13.0625 -1.734375 C 12.53125 -1.046875 11.851562 -0.519531 11.03125 -0.15625 C 10.207031 0.195312 9.375 0.375 8.53125 0.375 C 7.476562 0.375 6.492188 0.171875 5.578125 -0.234375 C 4.660156 -0.648438 3.859375 -1.210938 3.171875 -1.921875 C 2.492188 -2.640625 1.953125 -3.484375 1.546875 -4.453125 C 1.148438 -5.421875 0.953125 -6.457031 0.953125 -7.5625 C 0.953125 -8.65625 1.148438 -9.6875 1.546875 -10.65625 C 1.953125 -11.625 2.492188 -12.46875 3.171875 -13.1875 C 3.859375 -13.90625 4.660156 -14.46875 5.578125 -14.875 C 6.492188 -15.289062 7.476562 -15.5 8.53125 -15.5 C 9.375 -15.5 10.1875 -15.332031 10.96875 -15 C 11.75 -14.675781 12.445312 -14.164062 13.0625 -13.46875 L 13.53125 -15.140625 Z M 8.53125 -2.34375 C 9.144531 -2.34375 9.722656 -2.476562 10.265625 -2.75 C 10.816406 -3.019531 11.289062 -3.390625 11.6875 -3.859375 C 12.09375 -4.335938 12.410156 -4.894531 12.640625 -5.53125 C 12.878906 -6.164062 13 -6.84375 13 -7.5625 C 13 -8.28125 12.878906 -8.953125 12.640625 -9.578125 C 12.410156 -10.210938 12.09375 -10.765625 11.6875 -11.234375 C 11.289062 -11.710938 10.816406 -12.085938 10.265625 -12.359375 C 9.722656 -12.640625 9.144531 -12.78125 8.53125 -12.78125 C 7.925781 -12.78125 7.347656 -12.640625 6.796875 -12.359375 C 6.253906 -12.085938 5.78125 -11.710938 5.375 -11.234375 C 4.976562 -10.765625 4.660156 -10.210938 4.421875 -9.578125 C 4.191406 -8.953125 4.078125 -8.28125 4.078125 -7.5625 C 4.078125 -6.84375 4.191406 -6.164062 4.421875 -5.53125 C 4.660156 -4.894531 4.976562 -4.335938 5.375 -3.859375 C 5.78125 -3.390625 6.253906 -3.019531 6.796875 -2.75 C 7.347656 -2.476562 7.925781 -2.34375 8.53125 -2.34375 Z M 8.53125 -2.34375 "/></g></g></g></svg>