<svg xmlns="http://www.w3.org/2000/svg" xmlns:xlink="http://www.w3.org/1999/xlink" width="750" zoomAndPan="magnify" viewBox="0 0 562.5 128.249994" height="171" preserveAspectRatio="xMidYMid meet" version="1.0"><defs><g/></defs><g fill="#ffa500" fill-opacity="1"><g transform="translate(29.482368, 95.643298)"><g><path d="M 33.671875 -0.109375 C 30.753906 0.890625 27.875 1.492188 25.03125 1.703125 C 22.195312 1.921875 19.640625 1.515625 17.359375 0.484375 C 15.085938 -0.546875 13.242188 -2.359375 11.828125 -4.953125 C 10.410156 -7.546875 9.703125 -11.1875 9.703125 -15.875 L 9.703125 -41.765625 L 2.234375 -41.765625 L 2.234375 -48.90625 L 9.703125 -51.03125 L 9.703125 -64.671875 L 20.03125 -64.671875 L 20.03125 -51.03125 L 33.875 -51.03125 L 33.875 -41.765625 L 20.03125 -41.765625 L 20.03125 -14.28125 C 20.03125 -12.570312 20.222656 -11.21875 20.609375 -10.21875 C 21.003906 -9.226562 21.660156 -8.484375 22.578125 -7.984375 C 23.503906 -7.492188 24.710938 -7.25 26.203125 -7.25 C 27.703125 -7.25 29.515625 -7.390625 31.640625 -7.671875 Z M 33.671875 -0.109375 "/></g></g></g><g fill="#ffa500" fill-opacity="1"><g transform="translate(65.917227, 95.643298)"><g><path d="M 40.484375 -4.578125 C 38.710938 -2.941406 36.632812 -1.59375 34.25 -0.53125 C 31.875 0.53125 29.226562 1.0625 26.3125 1.0625 C 24.46875 1.0625 22.375 0.796875 20.03125 0.265625 C 17.6875 -0.265625 15.5 -1.3125 13.46875 -2.875 C 11.445312 -4.4375 9.742188 -6.582031 8.359375 -9.3125 C 6.972656 -12.050781 6.28125 -15.625 6.28125 -20.03125 L 6.28125 -51.03125 L 16.09375 -51.03125 L 16.09375 -20.03125 C 16.09375 -17.832031 16.425781 -15.96875 17.09375 -14.4375 C 17.769531 -12.90625 18.660156 -11.675781 19.765625 -10.75 C 20.867188 -9.832031 22.128906 -9.160156 23.546875 -8.734375 C 24.960938 -8.304688 26.421875 -8.09375 27.921875 -8.09375 C 29.054688 -8.09375 30.347656 -8.304688 31.796875 -8.734375 C 33.253906 -9.160156 34.625 -9.851562 35.90625 -10.8125 C 37.1875 -11.769531 38.269531 -12.992188 39.15625 -14.484375 C 40.039062 -15.984375 40.484375 -17.796875 40.484375 -19.921875 L 40.484375 -51.03125 L 50.828125 -51.03125 L 50.828125 0 L 42.625 0 Z M 40.484375 -4.578125 "/></g></g></g><g fill="#ffa500" fill-opacity="1"><g transform="translate(122.913273, 95.643298)"><g><path d="M 36.765625 -41.546875 C 36.265625 -41.765625 35.765625 -41.976562 35.265625 -42.1875 C 34.835938 -42.332031 34.335938 -42.472656 33.765625 -42.609375 C 33.203125 -42.753906 32.601562 -42.828125 31.96875 -42.828125 C 29.90625 -42.828125 27.984375 -42.488281 26.203125 -41.8125 C 24.429688 -41.144531 22.90625 -40.238281 21.625 -39.09375 C 20.351562 -37.957031 19.34375 -36.625 18.59375 -35.09375 C 17.84375 -33.570312 17.46875 -31.960938 17.46875 -30.265625 L 17.359375 0 L 7.03125 0 L 7.03125 -51.03125 L 15.234375 -51.03125 L 17.359375 -45.390625 C 18.785156 -47.453125 20.648438 -49.101562 22.953125 -50.34375 C 25.265625 -51.582031 28.160156 -52.203125 31.640625 -52.203125 C 33.910156 -52.203125 36.503906 -51.882812 39.421875 -51.25 Z M 36.765625 -41.546875 "/></g></g></g><g fill="#ffa500" fill-opacity="1"><g transform="translate(163.183372, 95.643298)"><g><path d="M 16.734375 0 L 6.390625 0 L 6.390625 -51.03125 L 16.625 -51.03125 Z M 11.5 -62.109375 C 9.65625 -62.109375 8.09375 -62.765625 6.8125 -64.078125 C 5.539062 -65.398438 4.90625 -66.984375 4.90625 -68.828125 C 4.90625 -70.671875 5.539062 -72.234375 6.8125 -73.515625 C 8.09375 -74.796875 9.65625 -75.4375 11.5 -75.4375 C 13.351562 -75.4375 14.914062 -74.796875 16.1875 -73.515625 C 17.46875 -72.234375 18.109375 -70.671875 18.109375 -68.828125 C 18.109375 -66.984375 17.46875 -65.398438 16.1875 -64.078125 C 14.914062 -62.765625 13.351562 -62.109375 11.5 -62.109375 Z M 11.5 -62.109375 "/></g></g></g><g fill="#ffa500" fill-opacity="1"><g transform="translate(185.555655, 95.643298)"><g><path d="M 29.734375 -10.65625 C 30.367188 -11.21875 30.929688 -11.851562 31.421875 -12.5625 C 31.921875 -13.28125 32.171875 -14.097656 32.171875 -15.015625 C 32.171875 -16.160156 31.765625 -17.125 30.953125 -17.90625 C 30.140625 -18.6875 29.144531 -19.34375 27.96875 -19.875 C 26.789062 -20.40625 25.5625 -20.8125 24.28125 -21.09375 C 23.007812 -21.375 21.945312 -21.625 21.09375 -21.84375 C 18.75 -22.40625 16.546875 -23.09375 14.484375 -23.90625 C 12.429688 -24.726562 10.640625 -25.722656 9.109375 -26.890625 C 7.578125 -28.066406 6.367188 -29.453125 5.484375 -31.046875 C 4.597656 -32.648438 4.15625 -34.554688 4.15625 -36.765625 C 4.15625 -38.816406 4.648438 -40.75 5.640625 -42.5625 C 6.640625 -44.375 7.972656 -45.972656 9.640625 -47.359375 C 11.304688 -48.742188 13.257812 -49.84375 15.5 -50.65625 C 17.738281 -51.476562 20.101562 -51.890625 22.59375 -51.890625 C 24.789062 -51.890625 26.882812 -51.566406 28.875 -50.921875 C 30.863281 -50.285156 32.65625 -49.414062 34.25 -48.3125 C 35.851562 -47.21875 37.203125 -45.890625 38.296875 -44.328125 C 39.398438 -42.765625 40.128906 -41.023438 40.484375 -39.109375 L 31.21875 -36.859375 C 30.789062 -38.566406 29.863281 -39.988281 28.4375 -41.125 C 27.019531 -42.257812 25.070312 -42.828125 22.59375 -42.828125 C 21.738281 -42.828125 20.847656 -42.703125 19.921875 -42.453125 C 19.003906 -42.210938 18.148438 -41.84375 17.359375 -41.34375 C 16.578125 -40.84375 15.921875 -40.238281 15.390625 -39.53125 C 14.859375 -38.820312 14.59375 -38.003906 14.59375 -37.078125 C 14.59375 -36.085938 14.894531 -35.234375 15.5 -34.515625 C 16.101562 -33.804688 16.832031 -33.222656 17.6875 -32.765625 C 18.539062 -32.304688 19.460938 -31.929688 20.453125 -31.640625 C 21.453125 -31.359375 22.378906 -31.113281 23.234375 -30.90625 C 26.992188 -29.976562 30.113281 -28.976562 32.59375 -27.90625 C 35.082031 -26.84375 37.070312 -25.671875 38.5625 -24.390625 C 40.0625 -23.117188 41.113281 -21.71875 41.71875 -20.1875 C 42.320312 -18.664062 42.625 -16.941406 42.625 -15.015625 C 42.625 -12.742188 42.109375 -10.613281 41.078125 -8.625 C 40.046875 -6.632812 38.625 -4.910156 36.8125 -3.453125 C 35 -2.003906 32.832031 -0.867188 30.3125 -0.046875 C 27.789062 0.765625 25.070312 1.171875 22.15625 1.171875 C 17.757812 1.171875 13.835938 0.0859375 10.390625 -2.078125 C 6.941406 -4.242188 4.613281 -7.140625 3.40625 -10.765625 L 12.140625 -14.703125 C 13.273438 -12.210938 14.726562 -10.523438 16.5 -9.640625 C 18.28125 -8.753906 20.3125 -8.3125 22.59375 -8.3125 C 25.425781 -8.3125 27.804688 -9.09375 29.734375 -10.65625 Z M 29.734375 -10.65625 "/></g></g></g><g fill="#ffa500" fill-opacity="1"><g transform="translate(231.365559, 95.643298)"><g><path d="M 33.671875 -0.109375 C 30.753906 0.890625 27.875 1.492188 25.03125 1.703125 C 22.195312 1.921875 19.640625 1.515625 17.359375 0.484375 C 15.085938 -0.546875 13.242188 -2.359375 11.828125 -4.953125 C 10.410156 -7.546875 9.703125 -11.1875 9.703125 -15.875 L 9.703125 -41.765625 L 2.234375 -41.765625 L 2.234375 -48.90625 L 9.703125 -51.03125 L 9.703125 -64.671875 L 20.03125 -64.671875 L 20.03125 -51.03125 L 33.875 -51.03125 L 33.875 -41.765625 L 20.03125 -41.765625 L 20.03125 -14.28125 C 20.03125 -12.570312 20.222656 -11.21875 20.609375 -10.21875 C 21.003906 -9.226562 21.660156 -8.484375 22.578125 -7.984375 C 23.503906 -7.492188 24.710938 -7.25 26.203125 -7.25 C 27.703125 -7.25 29.515625 -7.390625 31.640625 -7.671875 Z M 33.671875 -0.109375 "/></g></g></g><g fill="#ffa500" fill-opacity="1"><g transform="translate(267.800406, 95.643298)"><g><path d="M 16.734375 0 L 6.390625 0 L 6.390625 -51.03125 L 16.625 -51.03125 Z M 11.5 -62.109375 C 9.65625 -62.109375 8.09375 -62.765625 6.8125 -64.078125 C 5.539062 -65.398438 4.90625 -66.984375 4.90625 -68.828125 C 4.90625 -70.671875 5.539062 -72.234375 6.8125 -73.515625 C 8.09375 -74.796875 9.65625 -75.4375 11.5 -75.4375 C 13.351562 -75.4375 14.914062 -74.796875 16.1875 -73.515625 C 17.46875 -72.234375 18.109375 -70.671875 18.109375 -68.828125 C 18.109375 -66.984375 17.46875 -65.398438 16.1875 -64.078125 C 14.914062 -62.765625 13.351562 -62.109375 11.5 -62.109375 Z M 11.5 -62.109375 "/></g></g></g><g fill="#ffa500" fill-opacity="1"><g transform="translate(290.172689, 95.643298)"><g><path d="M 16.828125 0 L 6.5 0 L 6.5 -77.78125 L 16.828125 -77.78125 L 16.828125 -30.046875 L 36.859375 -51.03125 L 49.65625 -51.03125 L 30.046875 -30.46875 L 51.140625 0 L 39.421875 0 L 23.328125 -23.4375 L 16.828125 -16.625 Z M 16.828125 0 "/></g></g></g><g fill="#87ceeb" fill-opacity="1"><g transform="translate(341.277032, 95.410078)"><g><path d="M 36.765625 -41.546875 C 36.265625 -41.765625 35.765625 -41.976562 35.265625 -42.1875 C 34.835938 -42.332031 34.335938 -42.472656 33.765625 -42.609375 C 33.203125 -42.753906 32.601562 -42.828125 31.96875 -42.828125 C 29.90625 -42.828125 27.984375 -42.488281 26.203125 -41.8125 C 24.429688 -41.144531 22.90625 -40.238281 21.625 -39.09375 C 20.351562 -37.957031 19.34375 -36.625 18.59375 -35.09375 C 17.84375 -33.570312 17.46875 -31.960938 17.46875 -30.265625 L 17.359375 0 L 7.03125 0 L 7.03125 -51.03125 L 15.234375 -51.03125 L 17.359375 -45.390625 C 18.785156 -47.453125 20.648438 -49.101562 22.953125 -50.34375 C 25.265625 -51.582031 28.160156 -52.203125 31.640625 -52.203125 C 33.910156 -52.203125 36.503906 -51.882812 39.421875 -51.25 Z M 36.765625 -41.546875 "/></g></g></g><g fill="#87ceeb" fill-opacity="1"><g transform="translate(381.547131, 95.410078)"><g><path d="M 28.34375 1.28125 C 24.789062 1.28125 21.46875 0.585938 18.375 -0.796875 C 15.289062 -2.179688 12.59375 -4.082031 10.28125 -6.5 C 7.96875 -8.914062 6.132812 -11.753906 4.78125 -15.015625 C 3.4375 -18.285156 2.765625 -21.769531 2.765625 -25.46875 C 2.765625 -29.15625 3.4375 -32.632812 4.78125 -35.90625 C 6.132812 -39.175781 7.96875 -42.015625 10.28125 -44.421875 C 12.59375 -46.835938 15.289062 -48.738281 18.375 -50.125 C 21.46875 -51.507812 24.789062 -52.203125 28.34375 -52.203125 C 31.820312 -52.203125 35.125 -51.507812 38.25 -50.125 C 41.375 -48.738281 44.085938 -46.835938 46.390625 -44.421875 C 48.703125 -42.015625 50.53125 -39.175781 51.875 -35.90625 C 53.226562 -32.632812 53.90625 -29.15625 53.90625 -25.46875 C 53.90625 -21.769531 53.226562 -18.285156 51.875 -15.015625 C 50.53125 -11.753906 48.703125 -8.914062 46.390625 -6.5 C 44.085938 -4.082031 41.375 -2.179688 38.25 -0.796875 C 35.125 0.585938 31.820312 1.28125 28.34375 1.28125 Z M 28.34375 -42.9375 C 26.28125 -42.9375 24.328125 -42.472656 22.484375 -41.546875 C 20.640625 -40.628906 19.023438 -39.390625 17.640625 -37.828125 C 16.253906 -36.265625 15.171875 -34.414062 14.390625 -32.28125 C 13.609375 -30.15625 13.21875 -27.882812 13.21875 -25.46875 C 13.21875 -23.050781 13.609375 -20.773438 14.390625 -18.640625 C 15.171875 -16.515625 16.253906 -14.648438 17.640625 -13.046875 C 19.023438 -11.453125 20.640625 -10.191406 22.484375 -9.265625 C 24.328125 -8.347656 26.28125 -7.890625 28.34375 -7.890625 C 30.40625 -7.890625 32.359375 -8.347656 34.203125 -9.265625 C 36.046875 -10.191406 37.640625 -11.453125 38.984375 -13.046875 C 40.335938 -14.648438 41.40625 -16.515625 42.1875 -18.640625 C 42.96875 -20.773438 43.359375 -23.050781 43.359375 -25.46875 C 43.359375 -27.882812 42.96875 -30.15625 42.1875 -32.28125 C 41.40625 -34.414062 40.335938 -36.265625 38.984375 -37.828125 C 37.640625 -39.390625 36.046875 -40.628906 34.203125 -41.546875 C 32.359375 -42.472656 30.40625 -42.9375 28.34375 -42.9375 Z M 28.34375 -42.9375 "/></g></g></g><g fill="#87ceeb" fill-opacity="1"><g transform="translate(437.797432, 95.410078)"><g><path d="M 33.671875 -0.109375 C 30.753906 0.890625 27.875 1.492188 25.03125 1.703125 C 22.195312 1.921875 19.640625 1.515625 17.359375 0.484375 C 15.085938 -0.546875 13.242188 -2.359375 11.828125 -4.953125 C 10.410156 -7.546875 9.703125 -11.1875 9.703125 -15.875 L 9.703125 -41.765625 L 2.234375 -41.765625 L 2.234375 -48.90625 L 9.703125 -51.03125 L 9.703125 -64.671875 L 20.03125 -64.671875 L 20.03125 -51.03125 L 33.875 -51.03125 L 33.875 -41.765625 L 20.03125 -41.765625 L 20.03125 -14.28125 C 20.03125 -12.570312 20.222656 -11.21875 20.609375 -10.21875 C 21.003906 -9.226562 21.660156 -8.484375 22.578125 -7.984375 C 23.503906 -7.492188 24.710938 -7.25 26.203125 -7.25 C 27.703125 -7.25 29.515625 -7.390625 31.640625 -7.671875 Z M 33.671875 -0.109375 "/></g></g></g><g fill="#87ceeb" fill-opacity="1"><g transform="translate(474.23229, 95.410078)"><g><path d="M 54.34375 -51.03125 L 54.34375 0 L 45.609375 0 L 44 -5.859375 C 42.226562 -3.515625 39.957031 -1.738281 37.1875 -0.53125 C 34.414062 0.675781 31.609375 1.28125 28.765625 1.28125 C 25.210938 1.28125 21.890625 0.585938 18.796875 -0.796875 C 15.710938 -2.179688 13.015625 -4.082031 10.703125 -6.5 C 8.398438 -8.914062 6.570312 -11.753906 5.21875 -15.015625 C 3.875 -18.285156 3.203125 -21.769531 3.203125 -25.46875 C 3.203125 -29.15625 3.875 -32.632812 5.21875 -35.90625 C 6.570312 -39.175781 8.398438 -42.015625 10.703125 -44.421875 C 13.015625 -46.835938 15.710938 -48.738281 18.796875 -50.125 C 21.890625 -51.507812 25.210938 -52.203125 28.765625 -52.203125 C 31.609375 -52.203125 34.34375 -51.648438 36.96875 -50.546875 C 39.59375 -49.453125 41.9375 -47.734375 44 -45.390625 L 45.609375 -51.03125 Z M 28.765625 -7.890625 C 30.828125 -7.890625 32.78125 -8.347656 34.625 -9.265625 C 36.46875 -10.191406 38.066406 -11.453125 39.421875 -13.046875 C 40.773438 -14.648438 41.84375 -16.515625 42.625 -18.640625 C 43.40625 -20.773438 43.796875 -23.050781 43.796875 -25.46875 C 43.796875 -27.882812 43.40625 -30.15625 42.625 -32.28125 C 41.84375 -34.414062 40.773438 -36.28125 39.421875 -37.875 C 38.066406 -39.476562 36.46875 -40.738281 34.625 -41.65625 C 32.78125 -42.582031 30.828125 -43.046875 28.765625 -43.046875 C 26.703125 -43.046875 24.75 -42.582031 22.90625 -41.65625 C 21.0625 -40.738281 19.460938 -39.476562 18.109375 -37.875 C 16.765625 -36.28125 15.703125 -34.414062 14.921875 -32.28125 C 14.140625 -30.15625 13.75 -27.882812 13.75 -25.46875 C 13.75 -23.050781 14.140625 -20.773438 14.921875 -18.640625 C 15.703125 -16.515625 16.765625 -14.648438 18.109375 -13.046875 C 19.460938 -11.453125 21.0625 -10.191406 22.90625 -9.265625 C 24.75 -8.347656 26.703125 -7.890625 28.765625 -7.890625 Z M 28.765625 -7.890625 "/></g></g></g></svg>